<svg xmlns="http://www.w3.org/2000/svg" viewBox="0 0 769.87 714.3"><defs><style>.cls-1{isolation:isolate;}.cls-2{font-size:150.47px;fill:#e5ab4c;font-family:MiSans-Heavy, MiSans;}.cls-3{fill:red;}.cls-4{fill:#fbd2bb;}.cls-5{fill:#f9c3a1;}.cls-17,.cls-6,.cls-7{fill:#63c5e5;}.cls-7,.cls-9{mix-blend-mode:multiply;}.cls-16,.cls-8,.cls-9{fill:#4f4f51;}.cls-9{opacity:0.7;}.cls-10{fill:#b77825;}.cls-11{fill:#e2a040;}.cls-12{fill:#cc8e29;}.cls-13{fill:#b7791d;}.cls-14{fill:#b27a18;}.cls-15{fill:#96620f;}.cls-16{opacity:0.5;}.cls-16,.cls-17{mix-blend-mode:screen;}</style></defs><title>未标题-1</title><g class="cls-1"><g id="图层_4" data-name="图层 4"><ellipse cx="319.48" cy="304.45" rx="319.48" ry="304.45"/></g><g id="图层_6" data-name="图层 6"><text class="cls-2" transform="matrix(0.93, 0, 0.37, 0.93, 297.97, 271.69)">夢</text></g><g id="图层_7" data-name="图层 7"><path class="cls-3" d="M9.16,212.63l181.33,83.61s-50.77,80.17-113.63,56.28S9.16,224.19,9.16,224.19" transform="translate(122.48 59.07)"/><path class="cls-3" d="M457.9,212.63,276.57,296.24s50.77,80.17,113.64,56.28S457.9,224.19,457.9,224.19" transform="translate(122.48 59.07)"/></g><g id="图层_3" data-name="图层 3"><path class="cls-4" d="M441.23,272.25l-8.16-23.37-13.78-10.63a32.85,32.85,0,0,1-7.11-7.57s-5-12.73-14.09-21.26A38.65,38.65,0,0,1,389.33,197h0a54.72,54.72,0,0,0-6.68-11.82l-7.32-9.86a4.37,4.37,0,0,1,1.12-6.27h0a13.36,13.36,0,0,1,14,.12h0a62.27,62.27,0,0,1,17,15.64l2.07,2.77c2.06,2.76,7.81,2.49,10.6.66h0l-2.45-28.49-20-64.37A10.29,10.29,0,0,1,401,86.67h0a6.69,6.69,0,0,1,7.15-1.15h0a7.61,7.61,0,0,1,4.4,6l24.69,56.68a1,1,0,0,0,1.3.84h0a1.06,1.06,0,0,0,.69-1l-.05-49.93L438.79,71a8.47,8.47,0,0,1,4.41-6.85h0a7.6,7.6,0,0,1,8,.57l.67.48a8.8,8.8,0,0,1,3.61,6.61L460,146.16a1.07,1.07,0,0,0,.86,1l.86.13,18.19-63.48c.42-8.56,5-10.54,8-10.35,5.12.31,7.3,3.36,7.81,9,1.5,16.67-14.15,64.05-14,70.31a1.09,1.09,0,0,0,.6,1l1,.47,32-46.46a6.79,6.79,0,0,1,9.72-3.81h0c2.9,1.62,3.36,4.08,3.59,8.53,0,0-27.63,43-28.39,52.77l0,64.23a24.58,24.58,0,0,1-4.05,11.78l-2.75,4.1-2.1,22.29c-1.24,5.75-2.69,8.45-7.33,9.84l3.82-1.23c-12.51,3.74-16.11,7.58-29.06,6l-7.07-1.57C447.15,280.12,444.51,277,441.23,272.25Z" transform="translate(122.48 59.07)"/><path class="cls-5" d="M451.87,254.7a31.6,31.6,0,0,1-18.8-5.82l3.79,10.85C439.35,256.7,446.36,255.7,451.87,254.7Z" transform="translate(122.48 59.07)"/><path class="cls-5" d="M479,252.85c5.38,0,12.81-4,13.76-.65l.64-6.82S489.44,250.47,479,252.85Z" transform="translate(122.48 59.07)"/><path class="cls-5" d="M464.9,214.29c2.22,3.66.6-24.58-19.22-33.39-6.5-2.9-22.13-4.39-27.11-10.8l1.56,18.15a6.17,6.17,0,0,1-3.32,1C421.81,188.27,449.45,188.83,464.9,214.29Z" transform="translate(122.48 59.07)"/><path class="cls-5" d="M500.31,164.65c.14-2,.32-5.15.52-9-3.63,12.19-15.83-.09-17.1-4.57l-.39,3.2-1-.47a1.09,1.09,0,0,1-.6-1c0-.93-.07-2.8-.13-5.34-2.91,9.34-17.6,3.72-19.78-4.71l-.09,4.54-.86-.13a1.07,1.07,0,0,1-.86-1l-.22-3.6a8.59,8.59,0,0,1-3.78,4.85c-4.46,2.55-12.86,3.61-16.8-2.73V148a1.06,1.06,0,0,1-.69,1h0a1,1,0,0,1-1.3-.84l-.62-3.47c-.66,6.36-15.64,10-19.73,6.87l.28,2.91c11.41-3.16,29.8-6.22,44.47-3.87A116.41,116.41,0,0,1,500.31,164.65Z" transform="translate(122.48 59.07)"/><path class="cls-4" d="M482.19,205" transform="translate(122.48 59.07)"/></g><g id="图层_2" data-name="图层 2"><path class="cls-6" d="M290.15,563.44s-57.42,17-56.61,38c2.43,16.18,53.77,15.37,52.16,23s-.43,31.42,72.78,30.73c42.86-.4,67.92-3.23,86.13-2.41s36.79-4,30.32-10.52,4.86-12.94,33.56-16.17,27.09-2.44,35.59-10.52,27.09-6.07,46.9-11.32-29.52-11.31-75.61-8.49S372.23,585.68,339.88,559.4C325.32,552.93,290.15,563.44,290.15,563.44Z" transform="translate(122.48 59.07)"/><path class="cls-7" d="M515.37,595.79c-46.09,2.83-143.14-10.11-175.49-36.39-14.56-6.47-49.73,4-49.73,4s-9,2.65-19.74,7.16c2.84,1.67,4.5,4.9,4.2,10.37-.2,3.4-3,7.21-1.29,10.48,1.58,3,4.88,4.91,7.77,6.49a75.58,75.58,0,0,0,22,7.68,145.93,145.93,0,0,0,33.25,3c15.16-.48,30.64-1.43,45.71.78,5.3.78,11.74,1.78,16.07,5.27,3.2,2.6,4.89,7.11,2.26,10.77-1.88,2.6-4.49,4.28-6.95,6.26-1.77,1.42-4.64,3.76-3.18,6.38a7,7,0,0,0,4.62,3c5.59,1.38,11.35.94,17.05,1.16a123.66,123.66,0,0,0,17.43-.2c2.79-.3,6.2-.55,8.65-2.11,3.16-2-.64-5.49-2.32-7-.4-.35.29-1.25.61-1.42,10.78-5.61,23.41-4,35.1-5,14.46-1.18,29.28-6.91,43.86-4.2a65.5,65.5,0,0,1,8.26,2.06c13.51-1.62,14-2.51,20.61-8.82,8.48-8.08,27.09-6.07,46.9-11.32S561.46,593,515.37,595.79Z" transform="translate(122.48 59.07)"/><path class="cls-8" d="M454.14,287.84s-48.64,26-99.07,72.21c-48.64,44.17-74.6,75.5-75.49,81.77s12.92,23.26,29.07,41.66c-5.82,20.66-10.32,34.11-8.52,49.37s69.57,52.07,92.45,64.64S433,619,452.29,616.79s70.46-9,85.74-9.42c15.25-.9,37.69-5.39,48-1.79s24.69,1.33,38.6-2.71,24.69-4.48,22.45-11.66-5.38-15.27-5.38-27.83-2.25-47.14-8.09-68.67-17-46.68-17-46.68,12.12-38.16,13.46-48.48-19.3-32.32-44-56.56-76.29-58.8-96.95-66C475.62,276.11,452.39,289.24,454.14,287.84Z" transform="translate(122.48 59.07)"/><path d="M360.53,379.42s.93-1.63,2.71-4.38,4.38-6.68,7.74-11.2c1.66-2.27,3.51-4.69,5.49-7.24s4.14-5.19,6.37-7.9,4.66-5.45,7.17-8.17,5-5.51,7.67-8.18c1.33-1.32,2.64-2.67,4-4s2.72-2.57,4.08-3.83l4-3.76,4-3.53c1.33-1.15,2.61-2.32,3.92-3.39l3.9-3.08c2.52-2,4.93-3.89,7.25-5.49s4.39-3.15,6.26-4.44,3.63-2.28,5-3.15l4.38-2.72-4.18,3-4.83,3.42c-1.81,1.39-3.84,3-6.05,4.69s-4.58,3.63-7,5.72L418.63,315c-1.25,1.13-2.54,2.27-3.85,3.44s-2.62,2.35-4,3.56-2.62,2.5-3.95,3.77-2.66,2.57-4,3.86-2.6,2.67-3.9,4c-2.67,2.6-5.19,5.37-7.71,8s-4.89,5.44-7.22,8-4.52,5.2-6.55,7.7-4,4.84-5.7,7c-3.47,4.4-6.31,8.12-8.24,10.77S360.53,379.42,360.53,379.42Z" transform="translate(122.48 59.07)"/><path d="M415.78,348.53s.3-1,.92-2.65,1.5-4.08,2.77-6.89,2.76-6.05,4.56-9.44q1.35-2.55,2.87-5.18c1.06-1.71,2.08-3.5,3.2-5.21s2.25-3.42,3.46-5.05,2.36-3.24,3.58-4.73,2.36-2.94,3.57-4.24,2.26-2.57,3.37-3.64,2.1-2.08,3-2.93,1.76-1.52,2.45-2.1l2.16-1.81-1.92,2.06L447.55,299c-.8.95-1.7,2-2.71,3.14s-2,2.46-3.13,3.8-2.18,2.84-3.32,4.36-2.26,3.14-3.41,4.77-2.24,3.33-3.37,5-2.15,3.43-3.22,5.13-2,3.4-3,5.05c-1.88,3.3-3.65,6.38-5,9.12s-2.59,4.95-3.36,6.57Z" transform="translate(122.48 59.07)"/><path d="M457.68,316.81a27.42,27.42,0,0,1,.07-3.77c.08-1.11.22-2.43.46-3.81a20.83,20.83,0,0,1,.39-2.13c.17-.73.33-1.47.5-2.2.34-1.46.87-2.88,1.32-4.22a16.91,16.91,0,0,1,.82-1.88c.28-.59.56-1.16.81-1.65a7.06,7.06,0,0,1,.85-1.31l.72-1c.4-.52.64-.81.64-.81l-.33,1c-.13.31-.27.67-.42,1.09a14.05,14.05,0,0,0-.52,1.42c-.13.54-.3,1.1-.5,1.7s-.4,1.23-.56,1.91c-.3,1.35-.79,2.72-1.1,4.16s-.73,2.87-1.08,4.2-.69,2.61-1,3.68C458.16,315.37,457.68,316.81,457.68,316.81Z" transform="translate(122.48 59.07)"/><path d="M472,293.77s0,1.18,0,3.24-.06,5-.18,8.54-.24,7.65-.44,12.05-.65,9.1-1,13.8-.81,9.4-1.26,13.79-.91,8.5-1.28,12-.8,6.42-1,8.48-.45,3.2-.45,3.2,0-1.17.09-3.24.17-5,.39-8.54.4-7.64.72-12,.67-9.09,1-13.78.83-9.37,1.22-13.76.72-8.5,1-12,.65-6.44.84-8.5S472,293.77,472,293.77Z" transform="translate(122.48 59.07)"/><path d="M483.11,290.18s2.3,2.48,5.46,6.44c1.59,2,3.43,4.3,5.29,6.87.93,1.29,1.88,2.62,2.86,4s1.86,2.79,2.77,4.23l2.66,4.32c.42.7.84,1.4,1.27,2.08s.81,1.39,1.22,2.07c.81,1.35,1.56,2.69,2.28,3.95s1.56,2.31,2.24,3.37,1.34,2,1.95,2.82l1.63,2.08q.69.89,1.08,1.32l.4.46-.45-.38a12.21,12.21,0,0,1-1.28-1.16c-.53-.53-1.17-1.16-1.89-1.9s-1.45-1.66-2.26-2.66a37.89,37.89,0,0,1-2.53-3.25c-.8-1.21-1.67-2.48-2.51-3.81l-2.66-4.13c-.86-1.39-1.78-2.81-2.66-4.22s-1.71-2.88-2.69-4.22-1.85-2.72-2.73-4-1.7-2.59-2.49-3.8l-2.31-3.38c-1.44-2.07-2.53-3.88-3.38-5.09Z" transform="translate(122.48 59.07)"/><path d="M492.68,284.8a39.87,39.87,0,0,1,5.35,2.82,25.17,25.17,0,0,1,2.45,1.62c.87.6,1.77,1.21,2.67,1.9l2.71,2.24a32.14,32.14,0,0,1,2.67,2.44c.86.87,1.71,1.73,2.54,2.6a24.61,24.61,0,0,1,2.28,2.67c.69.9,1.37,1.77,2,2.59.3.42.61.82.91,1.22s.5.84.73,1.22c.93,1.57,1.63,2.92,2.15,3.83s.77,1.47.77,1.47-.4-.46-1.07-1.28-1.61-2-2.7-3.41l-.84-1.11c-.32-.36-.66-.72-1-1.11l-2.17-2.39a27,27,0,0,0-2.32-2.51l-2.53-2.5a31.06,31.06,0,0,0-2.58-2.43c-.87-.79-1.73-1.57-2.55-2.33-1.73-1.39-3.3-2.79-4.71-3.9s-2.58-2.05-3.43-2.65Z" transform="translate(122.48 59.07)"/><path d="M462.22,434.26l4.92-1.28c1.57-.43,3.49-.9,5.66-1.53l7.29-2.06c2.68-.7,5.55-1.61,8.6-2.55s6.24-1.89,9.57-2.9l10.16-3.32,5.24-1.7,5.21-1.89,10.4-3.68c3.46-1.14,6.76-2.55,10-3.84l9.31-3.65,4.33-1.68c1.37-.6,2.68-1.19,4-1.76,5.07-2.28,9.33-4.09,12.3-5.39s4.69-2,4.69-2l-4.53,2.3c-2.91,1.44-7,3.57-12,6l-3.9,1.89-4.27,1.83-9.25,3.9c-3.21,1.31-6.51,2.76-10,3.95l-10.42,3.8-5.25,1.85c-1.75.56-3.51,1.1-5.26,1.64l-10.23,3.22c-3.33,1-6.59,1.82-9.67,2.68s-6,1.63-8.7,2.26c-5.39,1.33-9.93,2.29-13.12,2.94-1.59.35-2.84.57-3.7.71Z" transform="translate(122.48 59.07)"/><path d="M279.93,442.19l2-1.16c1.29-.7,3.13-1.75,5.41-2.86s4.9-2.48,7.76-3.83,6-2.62,9.11-3.95c1.57-.65,3.12-1.3,4.67-1.93s3.06-1.21,4.55-1.72c3-1.06,5.82-1.93,8.23-2.74s4.44-1.38,5.84-1.81l2.23-.65-2.11,1c-1.36.58-3.28,1.47-5.62,2.43s-5,2.12-8,3.28c-1.47.54-3,1.17-4.49,1.85s-3.07,1.29-4.62,2c-3.11,1.28-6.22,2.58-9.16,3.72s-5.65,2.34-8,3.32-4.32,1.71-5.68,2.27Z" transform="translate(122.48 59.07)"/><path d="M586.5,458.34l-2.78,5.6c-1.82,3.56-4.35,8.64-7.57,14.65s-7,13-11.16,20.46-8.74,15.3-13.4,23.12c-2.39,3.86-4.72,7.77-7.15,11.54s-4.72,7.52-7.11,11.06-4.64,7-7,10.15-4.4,6.2-6.52,8.9-4,5.2-5.83,7.27-3.29,4-4.76,5.38c-2.81,2.81-4.43,4.41-4.43,4.41s1.53-1.69,4.17-4.64c1.39-1.43,2.76-3.43,4.51-5.57s3.53-4.71,5.53-7.46,4.08-5.79,6.25-9,4.39-6.71,6.73-10.25,4.62-7.31,7-11.1,4.68-7.7,7-11.58c4.71-7.76,9.33-15.58,13.58-23s8.21-14.27,11.62-20.17C582,466.25,586.5,458.34,586.5,458.34Z" transform="translate(122.48 59.07)"/><path d="M551,561.13a9.2,9.2,0,0,0,.94-.32c.59-.19,1.44-.53,2.42-.89.52-.15,1-.44,1.58-.66s1.17-.44,1.75-.76,1.19-.6,1.81-.86a16.45,16.45,0,0,0,1.84-1c.6-.35,1.22-.68,1.82-1s1.14-.76,1.68-1.13,1.09-.7,1.6-1a12.2,12.2,0,0,0,1.37-1c1.68-1.31,2.94-2.1,2.94-2.1s-.82,1.2-2.24,2.87a8.69,8.69,0,0,1-1.23,1.29c-.47.4-1,.84-1.51,1.27a20.21,20.21,0,0,1-1.68,1.3c-.63.36-1.26.74-1.9,1.12a16,16,0,0,1-1.94,1c-.67.29-1.34.53-2,.78a12,12,0,0,1-1.9.57c-.61.14-1.19.31-1.74.38A14.45,14.45,0,0,1,551,561.13Z" transform="translate(122.48 59.07)"/><path d="M616.57,447.16s-.26,2.17-.7,5.4c-.23,1.61-.51,3.48-.79,5.49s-.6,4.14-.85,6.27-.53,4.27-.73,6.26-.32,3.89-.36,5.49c0,.81,0,1.53,0,2.2a12.19,12.19,0,0,0,.07,1.69c.09.94.12,1.5.12,1.5s-.18-.5-.46-1.43a13.71,13.71,0,0,1-.4-1.69,18,18,0,0,1-.33-2.23,37.23,37.23,0,0,1-.18-5.63c0-2.05.25-4.23.51-6.39a86.05,86.05,0,0,1,2.42-11.75c.44-1.57.9-2.86,1.19-3.75S616.57,447.16,616.57,447.16Z" transform="translate(122.48 59.07)"/><path d="M311.8,503.68a10.57,10.57,0,0,1,1.46-.91,18.45,18.45,0,0,1,4.52-1.81,24.67,24.67,0,0,1,7.54-.72,31.74,31.74,0,0,1,9.64,2.12,78.5,78.5,0,0,1,10.33,5.35c3.57,2,7.33,4.18,11.22,6.38l12,6.92c4,2.4,8.18,4.79,12.24,7.34,2,1.27,4.06,2.52,6.06,3.83s4,2.65,5.91,4,3.84,2.7,5.7,4.09c.94.68,1.86,1.37,2.78,2.06l1.36,1,1.28,1.13c1.69,1.52,3.41,2.92,5,4.48s2.88,3.14,4.28,4.66c2.76,3,5.42,5.85,7.68,8.64s4.42,5.29,6.27,7.52,3.39,4.28,4.69,5.92,2.28,3,3,3.85,1,1.37,1,1.37-1.57-1.81-4.27-5l-4.92-5.71c-1.94-2.16-4.12-4.6-6.52-7.26s-5-5.48-7.89-8.43c-1.43-1.48-2.89-3-4.39-4.54s-3.23-2.85-4.9-4.31l-1.24-1.09-1.37-1c-.91-.65-1.82-1.33-2.75-2-1.86-1.36-3.71-2.76-5.68-4l-5.92-3.9c-2-1.28-4-2.5-6.06-3.77-4-2.56-8.14-5-12.16-7.41s-8-4.74-11.88-7-7.6-4.47-11.11-6.6a76.85,76.85,0,0,0-10.05-5.54,33.34,33.34,0,0,0-9.31-2.4,24.41,24.41,0,0,0-7.42.4,21.23,21.23,0,0,0-4.55,1.54A10.09,10.09,0,0,0,311.8,503.68Z" transform="translate(122.48 59.07)"/><path d="M309.1,483.48a16.12,16.12,0,0,1,2.17,1.07c.64.34,1.32.8,2.07,1.27s1.54,1,2.3,1.52a35.35,35.35,0,0,1,4,3.32,15.76,15.76,0,0,1,1.62,1.81,18,18,0,0,1-2.21-1,36.71,36.71,0,0,1-4.44-2.74c-.77-.57-1.53-1.13-2.21-1.71a23.72,23.72,0,0,1-1.74-1.71A17.58,17.58,0,0,1,309.1,483.48Z" transform="translate(122.48 59.07)"/><path class="cls-9" d="M647.09,591.21c-2.25-7.19-5.38-15.27-5.38-27.83s-2.25-47.14-8.09-68.67-17-46.68-17-46.68,12.12-38.16,13.46-48.48-19.3-32.32-44-56.56-76.29-58.8-96.95-66c-13.47-.9-36.7,12.23-34.95,10.83,0,0-48.64,26-99.07,72.21l-2.45,2.24h0s25.14-20.64,41.73-31c-23.79,26.92-31.36,41.42-33.85,48.09,38.34-40.48,58.09-58.87,69.76-66.49-19.29,25.12-20.64,41.28-20.64,41.28S433.44,317,450.5,300.34c11.22-10.31,2.68,8.1,4,23.35s8.09-14.81,14.37-24.68,2.24,18.86.89,36.8,2.25-15.7,6.29-32.76,6.28-16.17,17.95,3.59,9.42,3.14,1.35-9.86-3-8.7,24.54,18.84,41.88,38.89,44.28,59.83-78.39,49.09-110.12,60.46,67.64-15,101.74-25.15,43.09,19.16,12,66.44S496,596.9,480.42,598.09,439.12,569.37,411,543s-56.86-37.11-86.78-56.86-43.69-38.89-25.74-46.08,38.31-19.15,43.69-25.73-13,2.14-37.94,16c-10.39,5.8-18.94,9.69-24.52,10.82,0,.22-.1.42-.13.61-.9,6.25,12.92,23.26,29.07,41.66-5.82,20.66-10.32,34.11-8.52,49.37s69.57,52.07,92.45,64.64S433,619,452.29,616.79s70.46-9,85.74-9.42c15.25-.9,37.69-5.39,48-1.79s24.69,1.33,38.6-2.71S649.33,598.39,647.09,591.21Z" transform="translate(122.48 59.07)"/><path class="cls-9" d="M647.09,591.21c-2.25-7.19-5.38-15.27-5.38-27.83s-2.25-47.14-8.09-68.67-17-46.68-17-46.68,12.12-38.16,13.46-48.48-19.3-32.32-44-56.56c-4.83-4.74-10.71-9.89-17.18-15.15,1.48,1.43,2.95,2.86,4.4,4.32,8.43,8.53,15.89,18.13,23.37,27.49,7.64,9.54,17.64,20.3,19.23,32.93,1.44,11.44-2.22,22.44-6.16,33-2.3,6.12-5,12-7.39,18.13-2.5,6.58-2,11.91.11,18.5,4,12.71,9.69,24.79,14,37.38a115.32,115.32,0,0,1,6.66,33.75c.31,9.51.34,20.3-3.28,29.26-2.35,5.81-6.76,11.34-13.58,11.34-8.36,0-15.88-4.59-23.88-6.4-5.55-1.26-11.88-1.72-16.06,3-3.1,3.52-6,6.71-10.08,9.17a62.7,62.7,0,0,1-15.7,6.38c-6.12,1.7-12.14,4.22-18.16,6.3-17.45,6-33.41,15.27-50.45,22,23.22-2.86,54.71-6.71,66.12-7,15.25-.9,37.69-5.39,48-1.79s24.69,1.33,38.6-2.71S649.33,598.39,647.09,591.21Z" transform="translate(122.48 59.07)"/><path class="cls-10" d="M455.46,283.1c-1.43.48-2.6.92-3.59,1.3.51,0,.83-.06.83-.06s-1.78,3-3.17,5.35,13.09,1.19,40.26-4.75c.2-2.19.2-4.37.2-4.37C484.18,278.76,462.61,280.78,455.46,283.1Z" transform="translate(122.48 59.07)"/><path class="cls-11" d="M489.75,272.05h-1.52a89,89,0,0,1-12.67-1c-6.85-1-19.35,3.93-25,5.68a19.18,19.18,0,0,1-3,.66c-1.53.9-3.19,2.38-2.13,4.39,1.36,2.56,4.89,2.72,6.51,2.64,1-.38,2.16-.82,3.59-1.3,7.15-2.32,28.72-4.34,34.53-2.53,0,0,2.78.59,2.58-1.2s-.79-6.53-.79-6.53Z" transform="translate(122.48 59.07)"/><path class="cls-11" d="M389.8,535.6c-14.7-9.47-46-29.11-60.21-34.1L280,544.69l96.7,18.69Z" transform="translate(122.48 59.07)"/><polygon class="cls-12" points="402.44 603.76 417.59 653.62 508.56 664 499.14 622.45 402.44 603.76"/><path class="cls-13" d="M389.8,535.6l-13.14,27.78,9.42,41.56,11.64-64.19S394.67,538.74,389.8,535.6Z" transform="translate(122.48 59.07)"/><polygon class="cls-14" points="414.16 615.47 416.73 623.93 426.83 625.58 425.55 615.84 414.16 615.47"/><polygon class="cls-14" points="468.36 641.75 470.2 651.12 485.26 652.4 483.78 643.59 468.36 641.75"/><polygon class="cls-15" points="439.69 632.93 459.36 631.46 457.71 614.75 435.65 610.16 439.69 632.93"/><polygon class="cls-14" points="474.42 571.57 435.65 610.16 457.71 614.75 485.82 578.55 474.42 571.57"/><path class="cls-16" d="M364.32,358.7S326.61,390.12,314,409.87s15.27,1.79,35.91-7.18,13.47,9-10.77,28.73,33.93,77.2,112.51,118.19c110.11,57.46-21.84-67.92-57.75-93.07S429,374,443.31,337.16s14.39-31.43-25.11,15.25S388.55,391,402,356.91s6.28-15.26-22.44,13.46S330.2,412.57,364.32,358.7Z" transform="translate(122.48 59.07)"/><path class="cls-16" d="M474.77,390.25s3.32-73.27,10-74.38,13.33,41.07,15.54,65.49S469.21,423.55,474.77,390.25Z" transform="translate(122.48 59.07)"/><path class="cls-17" d="M354.84,652.86c-29.26-2.4-45.7-14.17-57.63-20.45-1.45-.76-7.56-4.47-5.29-7a10.22,10.22,0,0,0,2.44-4.29c.7-2.16.27-4.66-1.82-5.91-11.21-6.75-24.55-6.93-37-9.64-5.47-1.19-14.92-2.71-15.39-9.59-.07-1.06.42-1,.48-3s-2.15.2-2.34,1.11c-1.17,5.58-2.28,8.11,3.07,12.39,4.56,3.64,12.85,4.61,18.41,5.76,9,1.88,17.74,3.21,26.3,6.79,6.58,2.77.89,4.58,1,9,.12,4.19,2,6.46,5.23,9,10.53,8.16,25.93,14.24,39.22,15.9C350.92,655.27,357.63,653.09,354.84,652.86Z" transform="translate(122.48 59.07)"/></g></g></svg>